<?xml version="1.0" standalone="no"?>
<!DOCTYPE svg PUBLIC "-//W3C//DTD SVG 20010904//EN"
 "http://www.w3.org/TR/2001/REC-SVG-20010904/DTD/svg10.dtd">
<svg version="1.0" xmlns="http://www.w3.org/2000/svg"
 width="704.000000pt" height="704.000000pt" viewBox="0 0 704.000000 704.000000"
 preserveAspectRatio="xMidYMid meet">
<metadata>
Created by potrace 1.14, written by Peter Selinger 2001-2017
</metadata>
<g transform="translate(0.000000,704.000000) scale(0.100000,-0.100000)"
fill="#000000" stroke="none">
<path d="M4057 7024 c-1 -1 -31 -4 -67 -8 -78 -7 -99 -11 -170 -31 -30 -8 -65
-18 -77 -20 -31 -7 -174 -69 -227 -99 -205 -114 -405 -319 -503 -516 -21 -41
-40 -77 -43 -80 -3 -3 -6 -12 -8 -20 -2 -8 -10 -30 -18 -48 -16 -33 -56 -183
-69 -257 -4 -22 -9 -457 -10 -967 l-3 -926 21 -4 c18 -3 1210 -2 1242 1 7 1
10 498 9 1484 -1 815 -2 1485 -3 1488 -1 5 -68 7 -74 3z"/>
<path d="M1935 5322 c-221 -21 -433 -97 -616 -218 -92 -61 -309 -274 -309
-303 0 -5 -4 -11 -9 -13 -13 -5 -88 -131 -122 -204 -29 -64 -84 -224 -81 -235
1 -4 -3 -22 -8 -40 -21 -72 -24 -200 -24 -1064 l-1 -899 628 -1 c346 0 632 2
636 5 4 3 7 673 7 1490 l-1 1485 -35 0 c-19 0 -48 -1 -65 -3z"/>
<path d="M4984 5315 c-2 -5 -3 -676 -2 -1490 l3 -1480 623 0 c343 0 629 3 635
7 11 7 15 1756 3 1838 -3 25 -9 59 -12 75 -3 17 -7 39 -9 50 -7 44 -37 142
-66 213 -82 207 -221 390 -399 528 -64 50 -180 127 -190 127 -3 -1 -23 8 -44
19 -95 49 -253 95 -381 113 -81 11 -157 12 -161 0z"/>
<path d="M2875 3120 c-2 -3 -3 -673 -3 -1488 l0 -1482 32 -1 c38 -2 31 -2 91
5 102 11 142 19 220 42 44 14 87 26 96 28 46 12 184 84 271 142 99 66 281 236
293 274 4 11 10 20 14 20 17 0 128 195 168 295 24 59 53 161 63 220 5 33 13
71 16 85 7 26 13 1824 6 1851 -3 14 -69 15 -633 15 -347 0 -632 -3 -634 -6z"/>
</g>
</svg>
