<svg width="25" height="25" fill="none" xmlns="http://www.w3.org/2000/svg"><path d="M20.827 4.896H3.735a1.954 1.954 0 00-1.084 3.58l7.855 5.237c.642.427.963.641 1.31.724.306.074.625.074.931 0 .347-.083.668-.297 1.31-.724l7.854-5.237a1.954 1.954 0 00-1.084-3.58z" fill="#FF492F"/><path d="M4.981 20.896h14.6c1.12 0 1.68 0 2.108-.218a2 2 0 00.874-.874c.218-.428.218-.988.218-2.108v-8.3l-7.837 5.225c-.963.641-1.444.962-1.964 1.087-.46.11-.938.11-1.398 0-.52-.125-1.001-.446-1.963-1.087L1.78 9.396v8.3c0 1.12 0 1.68.218 2.108a2 2 0 00.874.874c.428.218.988.218 2.108.218z" fill="#FF492F"/></svg>