<svg xmlns="http://www.w3.org/2000/svg">
    <symbol width="36" height="44" viewBox="0 0 36 44" fill="none" id="icon_logo">
    <path d="M13.8906 8.04186C13.8906 3.64819 17.4524 0.0864258 21.8461 0.0864258V18.7094H13.8906V8.04186Z" fill="#FF492F"/>
    <path d="M13.9473 24.4581H21.9027V35.1257C21.9027 39.5193 18.3409 43.0811 13.9473 43.0811V24.4581Z" fill="#FF9F1C"/>
    <path d="M27.123 10.7152C31.5167 10.7152 35.0785 14.277 35.0785 18.6707V29.3382H27.123V10.7152Z" fill="#078E14"/>
    <path d="M0.770508 18.6706C0.770508 14.277 4.33228 10.7152 8.72595 10.7152V29.3382H0.770508V18.6706Z" fill="#1064AE"/>
    </symbol>

    <symbol width="126" height="30" viewBox="0 0 126 30" fill="none" id="icon_logo_name">
    <path d="M4.72345 22.5837V22.2637L6.03545 21.9437C6.91011 21.7517 7.34745 21.2184 7.34745 20.3437V2.10374H4.62745C3.83811 
    2.10374 3.27278 2.31707 2.93145 2.74374C2.59011 3.14907 2.22745 3.71441 1.84345 4.43974L0.691445 6.67974H0.371445L0.531445 
    1.46374H18.9954L19.1234 6.67974H18.8034L17.6514 4.43974C17.2888 3.71441 16.9368 3.14907 16.5954 2.74374C16.2541 2.31707 
    15.6888 2.10374 14.8994 2.10374H12.1794V20.3437C12.1794 21.2184 12.6168 21.7517 13.4914 21.9437L14.8034 22.2637V22.5837H4.72345ZM26.0924 
    23.0637C24.4711 23.0637 23.0631 22.7331 21.8684 22.0717C20.6738 21.3891 19.7458 20.4291 19.0844 19.1917C18.4444 17.9544 18.1244 16.5037 
    18.1244 14.8397C18.1244 13.1757 18.4658 11.7357 19.1484 10.5197C19.8524 9.30374 20.8018 8.36507 21.9964 7.70374C23.2124 7.04241 
    24.5778 6.71174 26.0924 6.71174C27.6071 6.71174 28.9618 7.04241 30.1564 7.70374C31.3511 8.34374 32.2898 9.27174 32.9724 
    10.4877C33.6764 11.7037 34.0284 13.1544 34.0284 14.8397C34.0284 16.5251 33.6978 17.9864 33.0364 19.2237C32.3964 20.4397 31.4791 
    21.3891 30.2844 22.0717C29.1111 22.7331 27.7138 23.0637 26.0924 23.0637ZM26.0924 22.4237C26.8391 22.4237 27.4364 22.2104 27.8844 
    21.7837C28.3324 21.3571 28.6524 20.5997 28.8444 19.5117C29.0578 18.4237 29.1644 16.8877 29.1644 14.9037C29.1644 12.8984 
    29.0578 11.3517 28.8444 10.2637C28.6524 9.17574 28.3324 8.41841 27.8844 7.99174C27.4364 7.56507 26.8391 7.35174 26.0924 
    7.35174C25.3458 7.35174 24.7378 7.56507 24.2684 7.99174C23.8204 8.41841 23.4898 9.17574 23.2764 10.2637C23.0844 11.3517 
    22.9884 12.8984 22.9884 14.9037C22.9884 16.8877 23.0844 18.4237 23.2764 19.5117C23.4898 20.5997 23.8204 21.3571 24.2684 
    21.7837C24.7378 22.2104 25.3458 22.4237 26.0924 22.4237ZM41.1009 23.0637C40.2689 23.0637 39.5009 22.9037 38.7969 
    22.5837C38.1143 22.2637 37.5703 21.7517 37.1649 21.0477C36.7809 20.3224 36.5996 19.3731 36.6209 18.1997L36.7169 
    9.97574C36.7169 9.48507 36.6316 9.13307 36.4609 8.91974C36.2903 8.70641 36.0236 8.55707 35.6609 8.47174L35.2769 
    8.34374V8.02374L41.0049 6.90374L41.3249 7.22374L41.1649 11.7677V19.4797C41.1649 20.1624 41.3569 20.6637 41.7409 
    20.9837C42.1463 21.3037 42.6476 21.4637 43.2449 21.4637C43.8423 21.4637 44.3756 21.3784 44.8449 21.2077C45.3143 
    21.0371 45.7836 20.7811 46.2529 20.4397L46.3809 10.0077C46.3809 9.51707 46.3063 9.17574 46.1569 8.98374C46.0076 
    8.77041 45.7303 8.62107 45.3249 8.53574L45.0049 8.43974V8.11974L50.6049 6.90374L50.9249 7.22374L50.8289 
    11.7677V20.4397C50.8289 20.9091 50.8929 21.2717 51.0209 21.5277C51.1489 21.7837 51.4263 21.9971 51.8529 
    22.1677L52.1729 22.2637V22.5837L46.5729 22.9037L46.2849 21.0157C45.5809 21.5917 44.8129 22.0824 43.9809 22.4877C43.1703 
    22.8717 42.2103 23.0637 41.1009 23.0637ZM53.4652 22.5837V22.2637L53.9452 22.1357C54.3719 22.0077 54.6599 21.8157 54.8092 
    21.5597C54.9799 21.3037 55.0652 20.9731 55.0652 20.5677V10.5517C55.0652 10.0824 54.9799 9.74107 54.8092 9.52774C54.6599 
    9.29307 54.3719 9.13307 53.9452 9.04774L53.4652 8.91974V8.59974L58.9692 6.74374L59.2892 7.06374L59.5772 
    9.81574V10.0717C59.8759 9.47441 60.2599 8.93041 60.7292 8.43974C61.2199 7.92774 61.7532 7.51174 62.3292 
    7.19174C62.9265 6.87174 63.5132 6.71174 64.0892 6.71174C64.8999 6.71174 65.5185 6.93574 65.9452 7.38374C66.3719 7.83174 
    66.5852 8.39707 66.5852 9.07974C66.5852 9.80507 66.3719 10.3704 65.9452 10.7757C65.5399 11.1597 65.0492 11.3517 64.4732 
    11.3517C63.5772 11.3517 62.7879 10.9037 62.1052 10.0077L62.0412 9.94374C61.8279 9.64507 61.5825 9.48507 61.3052 9.46374C61.0279 
    9.42107 60.7719 9.54907 60.5372 9.84774C60.3239 10.0397 60.1425 10.2744 59.9932 10.5517C59.8652 10.8077 59.7372 11.1064 59.6092 
    11.4477V20.3757C59.6092 21.2291 59.9825 21.7624 60.7292 21.9757L61.7532 22.2637V22.5837H53.4652Z" fill="#fff"/>
    <path d="M67.5902 29.9437V29.6237L67.9742 29.4957C68.7635 29.2824 69.1582 28.7704 69.1582 27.9597V10.5517C69.1582 10.0824 
    69.0729 9.73041 68.9022 9.49574C68.7529 9.26107 68.4649 9.10107 68.0382 9.01574L67.5902 8.91974V8.59974L73.0302 6.74374L73.3502 
    7.06374L73.6382 8.05574C74.3422 7.62907 75.1209 7.29841 75.9742 7.06374C76.8489 6.82907 77.7449 6.71174 78.6622 6.71174C80.4969 
    6.71174 81.9475 7.41574 83.0142 8.82374C84.1022 10.2104 84.6462 12.2051 84.6462 14.8077C84.6462 17.3677 84.0489 19.3837 82.8542 
    20.8557C81.6809 22.3277 80.0169 23.0637 77.8622 23.0637C76.1769 23.0637 74.7582 22.8184 73.6062 22.3277V27.8637C73.6062 28.7171 
    73.9902 29.2504 74.7582 29.4637L75.3662 29.6237V29.9437H67.5902ZM76.3262 22.1357C77.3929 22.1357 78.2355 21.5811 78.8542 
    20.4717C79.4942 19.3624 79.8142 17.5171 79.8142 14.9357C79.8142 12.3544 79.5155 10.5517 78.9182 9.52774C78.3209 8.48241 
    77.4569 7.95974 76.3262 7.95974C75.5369 7.95974 74.6622 8.21574 73.7022 8.72774V21.6237C74.5129 21.9651 75.3875 22.1357 
    76.3262 22.1357ZM86.0612 22.5837V22.2637L86.4452 22.1357C87.2132 21.8797 87.5972 21.3464 87.5972 20.5357V3.41574C87.5972 
    2.98907 87.5119 2.66907 87.3412 2.45574C87.1705 2.22107 86.8719 2.05041 86.4452 1.94374L86.0292 1.84774V1.52774L91.8852 
    0.151739L92.2692 0.439739L92.1412 4.91974V15.8637C92.1412 16.6531 92.1412 17.4424 92.1412 18.2317C92.1625 18.9997 92.1732 
    19.7677 92.1732 20.5357C92.1732 20.9624 92.2585 21.3144 92.4292 21.5917C92.5999 21.8477 92.8879 22.0397 93.2932 22.1677L93.7092 
    22.2637V22.5837H86.0612ZM100.788 23.0637C99.9564 23.0637 99.1884 22.9037 98.4844 22.5837C97.8018 22.2637 97.2578 21.7517 96.8524 
    21.0477C96.4684 20.3224 96.2871 19.3731 96.3084 18.1997L96.4044 9.97574C96.4044 9.48507 96.3191 9.13307 96.1484 8.91974C95.9778 
    8.70641 95.7111 8.55707 95.3484 8.47174L94.9644 8.34374V8.02374L100.692 6.90374L101.012 7.22374L100.852 11.7677V19.4797C100.852 
    20.1624 101.044 20.6637 101.428 20.9837C101.834 21.3037 102.335 21.4637 102.932 21.4637C103.53 21.4637 104.063 21.3784 104.532 
    21.2077C105.002 21.0371 105.471 20.7811 105.94 20.4397L106.068 10.0077C106.068 9.51707 105.994 9.17574 105.844 8.98374C105.695 
    8.77041 105.418 8.62107 105.012 8.53574L104.692 8.43974V8.11974L110.292 6.90374L110.612 7.22374L110.516 11.7677V20.4397C110.516 
    20.9091 110.58 21.2717 110.708 21.5277C110.836 21.7837 111.114 21.9971 111.54 22.1677L111.86 22.2637V22.5837L106.26 22.9037L105.972 
    21.0157C105.268 21.5917 104.5 22.0824 103.668 22.4877C102.858 22.8717 101.898 23.0637 100.788 23.0637ZM118.876 23.0637C117.831 
    23.0637 116.892 22.9357 116.06 22.6797C115.228 22.4451 114.46 22.1464 113.756 21.7837L113.788 17.9757H114.108L115.196 19.8957C115.666 
    20.7491 116.178 21.3891 116.732 21.8157C117.308 22.2211 118.034 22.4237 118.908 22.4237C119.932 22.4237 120.754 22.1997 121.372 
    21.7517C122.012 21.2824 122.332 20.6637 122.332 19.8957C122.332 19.1917 122.108 18.6157 121.66 18.1677C121.212 17.7197 120.38 17.3144 
    119.164 16.9517L117.82 16.5357C116.519 16.1517 115.495 15.5544 114.748 14.7437C114.002 13.9331 113.628 12.9411 113.628 
    11.7677C113.628 10.3597 114.183 9.16507 115.292 8.18374C116.402 7.20241 117.991 6.71174 120.06 6.71174C120.892 6.71174 121.671 
    6.80774 122.396 6.99974C123.143 7.17041 123.858 7.43707 124.54 7.79974L124.348 11.2557H124.028L122.908 9.27174C122.503 8.56774 
    122.098 8.07707 121.692 7.79974C121.308 7.50107 120.722 7.35174 119.932 7.35174C119.207 7.35174 118.524 7.55441 117.884 
    7.95974C117.244 8.36507 116.924 8.94107 116.924 9.68774C116.924 10.4131 117.191 10.9891 117.724 11.4157C118.279 11.8424 
    119.09 12.2371 120.156 12.5997L121.596 13.0157C123.132 13.4851 124.231 14.1357 124.892 14.9677C125.554 15.7784 125.884 16.7597 
    125.884 17.9117C125.884 19.4691 125.266 20.7171 124.028 21.6557C122.812 22.5944 121.095 23.0637 118.876 23.0637Z" fill="#FF492F"/>
    </symbol>
</svg>
