<svg xmlns="http://www.w3.org/2000/svg">

    <symbol viewBox="0 0 32 32" id="icon_facebook">
    <path d="M16,31.5C7.453,31.5,0.5,24.547,0.5,16S7.453,0.5,16,0.5S31.5,7.453,31.5,16S24.547,31.5,16,31.5z" 
    fill="#FFFFFF"/>
    <path d="M16,1c8.271,0,15,6.729,15,15s-6.729,15-15,15S1,24.271,1,16S7.729,1,16,1 M16,0C7.163,0,0,7.163,0,16      
    s7.163,16,16,16s16-7.163,16-16S24.837,0,16,0L16,0z" 
    fill="#FF492F"/>
    <path d="M16,3.007c7.165,0,12.993,5.829,12.993,12.993S23.164,28.993,16,28.993S3.007,23.164,3.007,16S8.835,3.007,16,3.007"/>
    <path d="M16,3.006C8.836,3.006,3.006,8.836,3.006,16c0,3.605,1.478,6.871,3.858,9.227L25.227,6.864     
    C22.871,4.485,19.605,3.006,16,3.006z" 
    fill="#FFFFFF" opacity="0.3"/>
    <path d="M13.892,24.123h3.357v-8.124h2.239l0.297-2.799h-2.536l0.003-1.402c0-0.73,0.07-1.121,1.117-1.121h1.4    
    v-2.8h-2.24c-2.69,0-3.637,1.358-3.637,3.642V13.2h-1.677V16h1.677V24.123z" 
    fill="#FFFFFF"/>
    </symbol>

    <symbol  viewBox="0 0 32 32" id="icon_tvitter">
    <g id="style_2_copy_5"><g><g>
    <path d="M16,31.5C7.453,31.5,0.5,24.547,0.5,16S7.453,0.5,16,0.5S31.5,7.453,31.5,16S24.547,31.5,16,31.5z" fill="#FFFFFF"/>
    </g><g><g>
    <path d="M16,1c8.271,0,15,6.729,15,15s-6.729,15-15,15S1,24.271,1,16S7.729,1,16,1 M16,0C7.163,0,0,7.163,0,16      
    s7.163,16,16,16s16-7.163,16-16S24.837,0,16,0L16,0z" fill="#FF492F"/></g></g><g><g>
    <path d="M16,3.007c7.165,0,12.993,5.829,12.993,12.993S23.164,28.993,16,28.993S3.007,23.164,3.007,16S8.835,3.007,16,3.007"/>
    </g></g><g opacity="0.3"><path d="M16,3.006C8.836,3.006,3.006,8.836,3.006,16c0,3.605,1.478,6.871,3.858,9.227L25.227,6.864     
    C22.871,4.485,19.605,3.006,16,3.006z" fill="#FFFFFF"/></g></g><g>
    <path d="M18.014,9.564c-1.439,0.523-2.348,1.874-2.244,3.351l0.035,0.57l-0.576-0.07    
    c-2.094-0.268-3.925-1.175-5.479-2.7L8.99,9.959l-0.196,0.559c-0.414,1.245-0.149,2.56,0.714,3.445    
    c0.46,0.489,0.356,0.559-0.437,0.268c-0.276-0.093-0.518-0.163-0.541-0.128c-0.08,0.082,0.196,1.14,0.414,1.559    
    c0.299,0.582,0.909,1.152,1.577,1.49l0.564,0.268l-0.667,0.012c-0.644,0-0.667,0.012-0.598,0.257    
    c0.23,0.756,1.139,1.559,2.152,1.909l0.714,0.244l-0.621,0.372c-0.921,0.536-2.003,0.838-3.085,0.861    
    c-0.519,0.012-0.944,0.058-0.944,0.093c0,0.116,1.405,0.767,2.221,1.024c2.451,0.756,5.364,0.43,7.551-0.861    
    c1.554-0.92,3.107-2.746,3.833-4.516c0.392-0.942,0.783-2.665,0.783-3.49c0-0.536,0.035-0.605,0.679-1.245    
    c0.38-0.372,0.737-0.779,0.806-0.896c0.115-0.221,0.103-0.221-0.483-0.024c-0.978,0.349-1.117,0.303-0.633-0.221    
    c0.356-0.372,0.783-1.047,0.783-1.245c0-0.035-0.172,0.023-0.369,0.128c-0.207,0.116-0.667,0.291-1.013,0.395l-0.621,0.198    
    l-0.564-0.385c-0.311-0.209-0.748-0.442-0.978-0.512C19.442,9.355,18.544,9.378,18.014,9.564z" fill="#FFFFFF"/>
    </g></g>
    </symbol>

    <symbol viewBox="0 0 32 32" id="icon_instagram">
    <path d="M16,31.5C7.453,31.5,0.5,24.547,0.5,16S7.453,0.5,16,0.5S31.5,7.453,31.5,16S24.547,31.5,16,31.5z" 
    fill="#FFFFFF"/>
    <path d="M16,1c8.271,0,15,6.729,15,15s-6.729,15-15,15S1,24.271,1,16S7.729,1,16,1 M16,0C7.163,0,0,7.163,0,16      
    s7.163,16,16,16s16-7.163,16-16S24.837,0,16,0L16,0z" 
    fill="#FF492F"/>
    <path d="M16,3.007c7.165,0,12.993,5.829,12.993,12.993S23.164,28.993,16,28.993S3.007,23.164,3.007,16S8.835,3.007,16,3.007"/>
    <path d="M16,3.006C8.836,3.006,3.006,8.836,3.006,16c0,3.605,1.478,6.871,3.858,9.227L25.227,6.864     
    C22.871,4.485,19.605,3.006,16,3.006z" 
    fill="#FFFFFF" opacity="0.3"/>
    <path d="M21.555,8.593h-11.11c-1.046,0-1.852,0.806-1.852,1.852v11.11c0,1.045,0.806,1.852,1.852,1.852h11.11    
    c1.045,0,1.852-0.806,1.852-1.852v-11.11C23.407,9.399,22.6,8.593,21.555,8.593z M16.011,13.09c1.643,0,2.974,1.29,2.974,2.882    
    c0,1.591-1.331,2.882-2.974,2.882c-1.642,0-2.973-1.291-2.973-2.882C13.038,14.38,14.37,13.09,16.011,13.09z M21.555,21.092    
    c0,0.325-0.139,0.463-0.463,0.463H10.908c-0.324,0-0.463-0.138-0.463-0.463v-6.481l1.154,0.251    
    c-0.124,0.403-0.191,0.829-0.191,1.271c0,2.462,2.062,4.46,4.603,4.46c2.542,0,4.603-1.997,4.603-4.46   
    c0-0.442-0.067-0.868-0.191-1.271l1.132-0.251V21.092z M21.555,12.76c0,0.256-0.207,0.463-0.463,0.463H19.24    
    c-0.256,0-0.463-0.207-0.463-0.463v-1.852c0-0.256,0.207-0.463,0.463-0.463h1.852c0.256,0,0.463,0.207,0.463,0.463V12.76z" 
    fill="#FFFFFF"/>
    </symbol>

    <symbol viewBox="0 0 32 32" id="icon_youtube">
    <path d="M16,31.5C7.453,31.5,0.5,24.547,0.5,16S7.453,0.5,16,0.5S31.5,7.453,31.5,16S24.547,31.5,16,31.5z" 
    fill="#FFFFFF"/>
    <path d="M16,1c8.271,0,15,6.729,15,15s-6.729,15-15,15S1,24.271,1,16S7.729,1,16,1 M16,0C7.163,0,0,7.163,0,16  
    s7.163,16,16,16s16-7.163,16-16S24.837,0,16,0L16,0z" 
    fill="#FF492F"/>
    <path d="M16,3.007c7.165,0,12.993,5.829,12.993,12.993S23.164,28.993,16,28.993S3.007,23.164,3.007,16S8.835,3.007,16,3.007"/>
    <path d="M16,3.006C8.836,3.006,3.006,8.836,3.006,16c0,3.605,1.478,6.871,3.858,9.227L25.227,6.864     
    C22.871,4.485,19.605,3.006,16,3.006z" 
    fill="#FFFFFF" opacity="0.3"/>
    <path d="M20.599,18.747c-0.13,0-0.224,0.037-0.281,0.114c-0.057,0.073-0.084,0.198-0.084,0.373v0.419h0.722      
    v-0.419c0-0.174-0.029-0.299-0.087-0.373C20.815,18.783,20.723,18.747,20.599,18.747z" 
    fill="#FFFFFF"/>
    <path d="M17.783,18.732c-0.059,0-0.117,0.012-0.173,0.04c-0.057,0.027-0.113,0.07-0.168,0.127v2.588      
    c0.066,0.066,0.131,0.117,0.194,0.146c0.063,0.029,0.128,0.045,0.197,0.045c0.1,0,0.173-0.029,0.22-0.088      
    c0.047-0.058,0.072-0.152,0.072-0.286v-2.145c0-0.14-0.029-0.247-0.087-0.319C17.978,18.768,17.892,18.732,17.783,18.732z" 
    fill="#FFFFFF"/>
    <path d="M22.321,15.512c-0.671-0.67-6.324-0.679-6.324-0.679c0,0-5.652,0.008-6.325,0.678      
    C9,16.183,8.998,19.496,8.998,19.515c0,0.025,0.001,3.332,0.674,4.004c0.672,0.67,6.325,0.684,6.325,0.684      
    s5.653-0.014,6.324-0.684c0.675-0.673,0.681-4.004,0.681-4.004C23.002,19.497,22.995,16.184,22.321,15.512z M13.309,17.465      
    h-0.952v4.813h-0.921v-4.813h-0.952v-0.818h2.825V17.465z M16,22.277h-0.815V21.82c-0.152,0.169-0.308,0.298-0.472,0.385      
    c-0.163,0.089-0.321,0.132-0.475,0.132c-0.19,0-0.33-0.06-0.427-0.185c-0.094-0.124-0.143-0.308-0.143-0.556v-3.473h0.816v3.186      
    c0,0.099,0.017,0.169,0.05,0.214c0.036,0.044,0.092,0.066,0.168,0.066c0.06,0,0.137-0.029,0.228-0.088      
    c0.092-0.058,0.175-0.132,0.254-0.222v-3.156H16V22.277z M18.964,21.419c0,0.294-0.064,0.519-0.192,0.676      
    c-0.127,0.157-0.313,0.234-0.555,0.234c-0.161,0-0.302-0.029-0.427-0.09c-0.125-0.06-0.243-0.153-0.349-0.281v0.319h-0.825      
    v-5.631h0.825v1.813c0.111-0.126,0.227-0.224,0.35-0.289c0.125-0.066,0.25-0.099,0.377-0.099c0.259,0,0.456,0.088,0.592,0.264      
    c0.138,0.177,0.205,0.437,0.205,0.777V21.419z M21.796,20.301h-1.562v0.781c0,0.219,0.027,0.371,0.08,0.456      
    c0.055,0.085,0.146,0.126,0.277,0.126c0.135,0,0.23-0.036,0.284-0.107c0.053-0.072,0.082-0.229,0.082-0.474v-0.19h0.84v0.213      
    c0,0.426-0.102,0.747-0.307,0.964c-0.204,0.215-0.51,0.322-0.916,0.322c-0.365,0-0.654-0.113-0.864-0.342      
    c-0.21-0.227-0.316-0.541-0.316-0.942v-1.865c0-0.359,0.117-0.654,0.347-0.881c0.231-0.227,0.528-0.34,0.894-0.34      
    c0.374,0,0.661,0.105,0.862,0.315c0.201,0.21,0.3,0.511,0.3,0.906V20.301z" 
    fill="#FFFFFF"/>
    <path d="M20.595,13.091h-0.92v-0.505c-0.168,0.186-0.344,0.329-0.529,0.425c-0.183,0.097-0.361,0.146-0.533,0.146     
    c-0.214,0-0.373-0.068-0.481-0.205c-0.107-0.136-0.161-0.34-0.161-0.614V8.515h0.918v3.508c0,0.108,0.021,0.187,0.059,0.235     
    c0.037,0.049,0.101,0.073,0.187,0.073c0.067,0,0.153-0.032,0.256-0.096c0.103-0.064,0.198-0.146,0.283-0.247V8.515h0.92     
    L20.595,13.091L20.595,13.091z" 
    fill="#FFFFFF"/>
    <path d="M16.862,8.732c-0.244-0.222-0.556-0.333-0.936-0.333c-0.417,0-0.751,0.105-0.998,0.315     
    c-0.248,0.21-0.372,0.492-0.372,0.847v2.372c0,0.389,0.121,0.698,0.361,0.928c0.242,0.229,0.564,0.344,0.966,0.344     
    c0.418,0,0.745-0.111,0.986-0.334c0.237-0.223,0.357-0.53,0.357-0.921V9.588C17.225,9.239,17.103,8.954,16.862,8.732z      
    M16.288,12.02c0,0.122-0.037,0.218-0.11,0.289c-0.074,0.069-0.172,0.104-0.297,0.104c-0.122,0-0.216-0.034-0.281-0.102     
    c-0.065-0.07-0.099-0.166-0.099-0.291V9.527c0-0.1,0.036-0.181,0.105-0.243c0.071-0.061,0.161-0.092,0.274-0.092     
    c0.121,0,0.219,0.03,0.294,0.092c0.075,0.062,0.113,0.143,0.113,0.243V12.02z" 
    fill="#FFFFFF"/>
    <polygon fill="#FFFFFF" points="12.051,6.888 11.008,6.888 12.241,10.634 12.241,13.091 13.276,13.091 13.276,10.518      
    14.481,6.888 13.428,6.888 12.789,9.368 12.724,9.368 "/>
    </symbol>

    <symbol viewBox="0 0 32 32" id="icon_android">
    <path d="M16,31.5C7.453,31.5,0.5,24.547,0.5,16S7.453,0.5,16,0.5S31.5,7.453,31.5,16S24.547,31.5,16,31.5z" fill="#FFFFFF"/>
    <path d="M16,1c8.271,0,15,6.729,15,15s-6.729,15-15,15S1,24.271,1,16S7.729,1,16,1 M16,0C7.163,0,0,7.163,0,16      
    s7.163,16,16,16s16-7.163,16-16S24.837,0,16,0L16,0z" fill="#FF492F"/>
    <path d="M16,3.007c7.165,0,12.993,5.829,12.993,12.993S23.164,28.993,16,28.993S3.007,23.164,3.007,16S8.835,3.007,16,3.007"/>
    <path d="M16,3.006C8.836,3.006,3.006,8.836,3.006,16c0,3.605,1.478,6.871,3.858,9.227L25.227,6.864     
    C22.871,4.485,19.605,3.006,16,3.006z" fill="#FFFFFF" opacity="0.3"/>
    <path d="M9.919,12.125c-0.61,0-1.106,0.495-1.106,1.106v4.422c0,0.61,0.495,1.106,1.106,1.106     
    c0.61,0,1.106-0.495,1.106-1.106V13.23C11.025,12.619,10.53,12.125,9.919,12.125z" fill="#FFFFFF"/>
    <path d="M22.081,12.125c-0.61,0-1.106,0.495-1.106,1.106v4.422c0,0.61,0.495,1.106,1.106,1.106     
    c0.61,0,1.106-0.495,1.106-1.106V13.23C23.186,12.619,22.691,12.125,22.081,12.125z" fill="#FFFFFF"/>
    <path d="M11.578,20.969h1.106v2.764c0,0.61,0.495,1.106,1.106,1.106c0.61,0,1.106-0.495,1.106-1.106v-2.764h2.211     
    v2.764c0,0.61,0.495,1.106,1.106,1.106c0.61,0,1.106-0.495,1.106-1.106v-2.764h1.106v-8.292h-8.844V20.969z" fill="#FFFFFF"/>
    <path d="M18.611,8.56l0.568-0.983c0.077-0.133,0.032-0.301-0.102-0.378c-0.132-0.077-0.301-0.032-0.378,0.102     
    l-0.553,0.959C17.51,7.905,16.779,7.702,16,7.702c-0.779,0-1.51,0.203-2.146,0.557L13.3,7.3     
    c-0.077-0.132-0.245-0.177-0.378-0.101c-0.132,0.076-0.177,0.245-0.101,0.378l0.568,0.984c-1.096,0.805-1.811,2.099-1.811,3.564     
    h8.844C20.422,10.66,19.707,9.365,18.611,8.56z M14.342,10.466c-0.306,0-0.553-0.247-0.553-0.553s0.247-0.553,0.553-0.553     
    c0.306,0,0.553,0.247,0.553,0.553S14.647,10.466,14.342,10.466z M17.658,10.466c-0.306,0-0.553-0.247-0.553-0.553     
    s0.247-0.553,0.553-0.553c0.306,0,0.553,0.247,0.553,0.553S17.964,10.466,17.658,10.466z" fill="#FFFFFF"/>
    </symbol>

</svg>
