<svg width="49" height="49" fill="none" xmlns="http://www.w3.org/2000/svg"><path d="M48.71 21.513c-.075-.675-.862-1.182-1.543-1.182-2.199 0-4.15-1.291-4.97-3.289a5.346 5.346 0 011.343-5.934 1.334 1.334 0 00.146-1.81 23.755 23.755 0 00-3.802-3.84 1.337 1.337 0 00-1.824.147c-1.43 1.585-4 2.173-5.986 1.345a5.33 5.33 0 01-3.241-5.21A1.332 1.332 0 0027.655.336a23.95 23.95 0 00-5.4-.014 1.336 1.336 0 00-1.188 1.374c.078 2.225-1.24 4.282-3.287 5.12-1.961.801-4.513.217-5.94-1.353a1.338 1.338 0 00-1.812-.152A23.86 23.86 0 006.146 9.15a1.335 1.335 0 00.143 1.823 5.319 5.319 0 011.342 5.989c-.828 1.973-2.877 3.244-5.222 3.244-.761-.025-1.303.486-1.387 1.178a24.059 24.059 0 00-.01 5.458c.076.677.886 1.18 1.574 1.18 2.09-.053 4.096 1.24 4.938 3.289.839 2.046.3 4.43-1.342 5.935a1.333 1.333 0 00-.145 1.808 23.842 23.842 0 003.796 3.841c.55.443 1.35.381 1.826-.145 1.437-1.588 4.006-2.175 5.983-1.345a5.323 5.323 0 013.248 5.209 1.332 1.332 0 001.177 1.402 23.792 23.792 0 005.4.014 1.336 1.336 0 001.188-1.374c-.08-2.224 1.24-4.281 3.284-5.118 1.975-.806 4.516-.216 5.944 1.352a1.34 1.34 0 001.811.151 23.888 23.888 0 003.882-3.838c.444-.55.38-1.35-.143-1.825a5.317 5.317 0 01-1.344-5.986c.815-1.947 2.788-3.253 4.91-3.253l.296.007c.689.056 1.322-.474 1.405-1.177.212-1.804.214-3.64.01-5.457zm-23.849 16.5c-7.641 0-13.836-6.194-13.836-13.835 0-7.642 6.195-13.837 13.836-13.837 7.642 0 13.837 6.195 13.837 13.836 0 2.594-.715 5.02-1.958 7.095l-6.058-6.059a8.462 8.462 0 00.67-3.312 8.425 8.425 0 00-2.485-5.998 8.426 8.426 0 00-5.997-2.484c-.756 0-1.509.1-2.236.299a.96.96 0 00-.665.669c-.087.327.011.661.266.917 0 0 2.992 3.014 3.992 4.015.105.105.105.355.09.445l-.01.066c-.1 1.1-.295 2.42-.455 2.928l-.064.061-.067.068c-.514.165-1.855.362-2.972.462v-.006l-.05.013a.64.64 0 01-.508-.193 2178.94 2178.94 0 00-3.915-3.895c-.258-.257-.522-.31-.699-.31-.41 0-.778.296-.894.722a8.51 8.51 0 002.189 8.218 8.428 8.428 0 005.998 2.485 8.463 8.463 0 003.312-.67l6.125 6.124a13.766 13.766 0 01-7.446 2.176z" fill="#FF9F1C"/></svg>