<svg width="25" height="25" viewBox="0 0 25 25" fill="none" xmlns="http://www.w3.org/2000/svg">
<g clip-path="url(#clip0_86_61)">
<path d="M13.9425 14.4816C13.112 10.2046 9.19382 8.26084 5.1951 9.01826C5.65358 6.61855 7.90021 4.65644 9.36007 2.83248C9.56711 2.57383 9.67381 2.11896 9.36007 1.87523C8.59047 1.27736 7.87223 1.09121 7.21056 1.18559C7.16468 1.06 7.04319 0.96636 6.88539 1.01598C4.5368 1.75548 3.01588 4.26424 1.99832 6.34337C0.655594 9.08752 -0.0180089 12.2643 0.139791 15.3136C0.388615 20.1209 4.68079 24.705 9.79194 23.3703C13.5233 22.3961 14.5824 17.7771 13.9425 14.4816ZM4.37925 18.3284C4.37962 18.3268 4.38061 18.3258 4.38099 18.3243C4.40436 18.2342 4.42438 18.1432 4.44565 18.0523C4.51479 18.1415 4.57758 18.2407 4.63304 18.3485C4.54538 18.3599 4.46007 18.3672 4.3785 18.369C4.378 18.3548 4.37974 18.3421 4.37925 18.3284ZM3.29815 7.04669C3.35983 7.07305 3.42523 7.08972 3.49338 7.09606C3.29367 7.49646 3.10951 7.90383 2.94363 8.32028C2.87859 8.3015 2.81045 8.29056 2.74094 8.29069C2.90981 7.86914 3.09882 7.45568 3.29815 7.04669ZM2.78546 19.2496C2.94612 19.4156 3.11846 19.5747 3.2979 19.7279C3.27104 19.7626 3.24828 19.7999 3.22901 19.839C3.0691 19.6519 2.91814 19.4574 2.78546 19.2496ZM7.39535 19.2331C7.18942 18.9642 7.03386 18.6674 6.93612 18.3432C6.93376 18.3194 6.92593 18.2955 6.91299 18.2716C6.8829 18.1601 6.85915 18.0456 6.84398 17.9272C7.18171 18.3863 7.45317 18.8976 7.70498 19.4144C7.59642 19.3648 7.49346 19.3038 7.39535 19.2331Z" fill="#FF9F1C"/>
<path d="M14.7218 8.24504C15.1738 6.41934 16.4066 5.15905 17.3022 3.51254C17.4478 3.24481 17.3906 2.82849 17.0857 2.68686C16.5282 2.42783 16.0272 2.14046 15.4699 1.9272C15.3011 1.56746 14.7918 1.33132 14.4018 1.68273C13.7123 2.30411 12.9595 3.10106 12.358 3.99141C11.5604 4.96979 10.9877 6.15733 10.7974 7.29961C10.7749 7.4349 10.7983 7.57206 10.8513 7.69716C10.8225 7.74702 10.7937 7.79626 10.7648 7.84625C10.6192 8.09856 10.7022 8.43766 10.9582 8.58377C13.9941 10.3147 15.2499 13.1332 15.1605 16.103C15.0068 16.5362 14.9677 17.0041 15.0263 17.4745C14.7806 18.969 14.2179 20.4654 13.3869 21.8474C13.2001 22.1579 13.2697 22.4485 13.452 22.6455C13.4998 22.8009 13.6253 22.9324 13.8508 22.9833C18.6908 24.0766 23.5599 21.7604 24.0851 16.4797C24.5738 11.5659 19.455 7.42483 14.7218 8.24504ZM16.563 21.8999C16.5801 21.8838 16.5952 21.8662 16.612 21.8498C17.0563 21.8153 17.4624 21.6905 17.8075 21.4897C17.8115 21.5068 17.8141 21.5226 17.8182 21.5399C17.8294 21.5873 17.8535 21.6232 17.8728 21.6637C17.4458 21.7723 17.0077 21.853 16.563 21.8999ZM19.9959 12.6616C19.9501 12.7458 19.9098 12.8303 19.8692 12.915C19.866 12.8914 19.8655 12.867 19.8619 12.8434C19.868 12.6685 19.8988 12.4884 19.9463 12.3047C19.9514 12.3082 19.9572 12.3112 19.9622 12.3146C19.9866 12.4159 20.0065 12.5191 20.0221 12.6241C20.014 12.6371 20.0035 12.6479 19.9959 12.6616ZM22.3082 17.9606C22.3101 17.8452 22.3082 17.7289 22.3041 17.6119C22.38 17.4831 22.4499 17.3509 22.5093 17.2141C22.4606 17.4754 22.3896 17.7216 22.3082 17.9606Z" fill="#FF9F1C"/>
</g>
<defs>
<clipPath id="clip0_86_61">
<rect width="24" height="24" fill="white" transform="translate(0.117188 0.303711)"/>
</clipPath>
</defs>
</svg>
