<svg width="25" height="25" viewBox="0 0 25 25" fill="none" xmlns="http://www.w3.org/2000/svg">
<path d="M16.6148 16.77L15.9636 17.7467C15.8337 17.9417 15.6618 18.108 15.4352 18.1679C14.6932 18.364 12.7232 18.4525 9.72399 15.4533C6.72475 12.454 6.81327 10.484 7.00934 9.74202C7.0692 9.51548 7.23556 9.34359 7.43051 9.21362L8.40725 8.56246C9.13445 8.07766 9.33095 7.09514 8.84615 6.36794L7.00143 3.60085C6.57827 2.96611 5.76251 2.72361 5.06133 3.02412L4.22917 3.38076C3.59701 3.65168 3.08134 4.13791 2.77376 4.75307C2.51679 5.26701 2.31762 5.80823 2.29063 6.3822C2.20559 8.19102 2.60222 12.6474 7.56604 17.6112C12.5299 22.5751 16.9862 22.9717 18.795 22.8866C19.369 22.8596 19.9102 22.6605 20.4242 22.4035C21.0393 22.0959 21.5256 21.5802 21.7965 20.9481L22.1531 20.1159C22.4536 19.4147 22.2111 18.599 21.5764 18.1758L18.8093 16.3311C18.0821 15.8463 17.0996 16.0428 16.6148 16.77Z" fill="#FF492F"/>
</svg>
