<svg width="20" height="23" viewBox="0 0 20 23" fill="none" xmlns="http://www.w3.org/2000/svg">
<path fill-rule="evenodd" clip-rule="evenodd" d="M11.2545 22.2779C13.6765 20.6549 19.7812 16.0074 19.7812 10.396C19.7812 5.14929 15.528 0.895996 10.2812 0.895996C5.03454 0.895996 0.78125 5.14929 0.78125 10.396C0.78125 16.0074 6.88602 20.6549 9.30805 22.2779C9.90305 22.6766 10.6595 22.6766 11.2545 22.2779ZM10.2812 13.396C11.9381 13.396 13.2812 12.0529 13.2812 10.396C13.2812 8.73914 11.9381 7.396 10.2812 7.396C8.6244 7.396 7.28125 8.73914 7.28125 10.396C7.28125 12.0529 8.6244 13.396 10.2812 13.396Z" fill="#FF492F"/>
</svg>
