<svg width="25" height="25" viewBox="0 0 25 25" fill="none" xmlns="http://www.w3.org/2000/svg">
<path d="M20.8271 4.896H3.73541C2.65616 4.896 1.78125 5.7709 1.78125 6.85016C1.78125 7.50354 2.10779 8.11369 2.65144 8.47612L10.5062 13.7126C11.1477 14.1403 11.4685 14.3542 11.8152 14.4372C12.1216 14.5107 12.4409 14.5107 12.7473 14.4372C13.094 14.3542 13.4148 14.1403 14.0563 13.7126L14.0563 13.7126L21.9111 8.47612C22.4547 8.11369 22.7812 7.50354 22.7812 6.85016C22.7812 5.7709 21.9063 4.896 20.8271 4.896Z" fill="#FF492F"/>
<path d="M4.98125 20.896H19.5812C20.7014 20.896 21.2614 20.896 21.6892 20.678C22.0656 20.4863 22.3715 20.1803 22.5633 19.804C22.7812 19.3762 22.7812 18.8161 22.7812 17.696V9.396L14.9438 14.621C13.9815 15.2625 13.5004 15.5832 12.9804 15.7078C12.5208 15.818 12.0417 15.818 11.5821 15.7078C11.0621 15.5832 10.581 15.2625 9.61869 14.621L1.78125 9.396V17.696C1.78125 18.8161 1.78125 19.3762 1.99924 19.804C2.19098 20.1803 2.49694 20.4863 2.87327 20.678C3.30109 20.896 3.86115 20.896 4.98125 20.896Z" fill="#FF492F"/>
</svg>
