<svg width="49" height="49" viewBox="0 0 49 49" fill="none" xmlns="http://www.w3.org/2000/svg">
<path d="M48.8445 10.0237C48.8445 17.3162 45.6653 22.6142 45.5316 22.8352C45.2623 23.2753 44.7962 23.5167 44.3152 23.5167C44.0627 23.5167 43.8082 23.4499 43.578 23.3106C42.9057 22.9021 42.6903 22.0274 43.097 21.3552C43.1267 21.3069 45.9958 16.4842 45.9958 10.0237C45.9958 6.3394 43.6003 3.6653 40.2985 3.6653C37.1564 3.6653 34.6012 6.22055 34.6012 9.36447C34.6012 10.7034 35.2493 14.1054 35.4981 15.3032C35.6597 16.0738 35.1639 16.8278 34.3932 16.9894C33.6225 17.1472 32.8686 16.6551 32.7089 15.8863C32.6105 15.4165 31.7488 11.24 31.7488 9.36447C31.7488 4.65138 35.5835 0.81665 40.2985 0.81665C45.1694 0.81665 48.8445 4.77394 48.8445 10.0237ZM40.5399 12.2651C41.1063 16.9986 41.9271 26.2224 40.9837 27.1621L20.2855 47.8621C19.0134 49.1361 16.9466 49.1361 15.6727 47.8603L1.83238 34.0219C0.558476 32.7498 0.558476 30.6829 1.83238 29.409L22.5325 8.7108C22.8612 8.38211 26.4415 8.36725 30.4675 8.5771C30.4452 8.84265 30.3876 9.09335 30.3876 9.36447C30.3876 10.397 30.616 11.9977 30.8556 13.4053C30.4341 14.0311 30.1871 14.7832 30.1871 15.5947C30.1871 17.7563 31.9401 19.5093 34.1017 19.5093C36.2632 19.5093 38.0162 17.7563 38.0162 15.5947C38.0162 14.2633 37.3496 13.0896 36.3338 12.384C36.1258 11.1453 35.9587 9.94943 35.9587 9.36447C35.9587 9.23819 35.9847 9.1212 35.9958 8.99678C36.4916 9.04878 36.98 9.10263 37.4424 9.1602C40.1778 9.49632 40.2056 9.49075 40.5399 12.2651ZM29.5074 27.7563C29.1861 26.8631 28.6513 25.7916 27.4907 24.5585L29.0617 22.9856L27.3124 21.2382L25.617 22.9355C23.3477 21.3812 21.0079 21.5075 19.4201 23.0952C17.6894 24.8259 18.0979 27.0228 19.3681 29.5762C20.2409 31.344 20.4006 32.3617 19.7228 33.0395C19.0264 33.7359 17.903 33.4332 16.8835 32.4155C15.7247 31.2568 15.045 29.825 14.707 28.6644L12.0812 30.2206C12.3858 31.2716 13.2066 32.7702 14.3653 34.0033L12.6532 35.7173L14.4006 37.4666L16.2409 35.6282C18.668 37.3403 21.1156 37.1101 22.7033 35.5223C24.3282 33.8937 24.4712 32.0738 23.0784 29.1825C22.1128 27.1101 21.8807 26.0924 22.4526 25.5223C22.954 25.0209 23.8454 24.8779 25.006 26.0386C26.2929 27.3255 26.72 28.5752 26.9522 29.2363L29.5074 27.7563Z" fill="#FF9F1C"/>
</svg>
