<svg width="49" height="49" viewBox="0 0 49 49" fill="none" xmlns="http://www.w3.org/2000/svg">
<path d="M48.7104 21.5128C48.6346 20.8381 47.8476 20.3306 47.1672 20.3306C44.9681 20.3306 43.0164 19.0398 42.1979 17.0421C41.3623 14.9963 41.9014 12.611 43.5399 11.1079C44.0559 10.6361 44.1188 9.846 43.6862 9.29757C42.5603 7.86815 41.2812 6.57678 39.8841 5.4577C39.3376 5.01929 38.5344 5.08032 38.0601 5.60529C36.6297 7.18957 34.06 7.77827 32.0743 6.94981C30.0086 6.08066 28.7048 3.98677 28.8329 1.73927C28.875 1.03287 28.3585 0.419044 27.6546 0.337049C25.8617 0.129466 24.0531 0.123446 22.255 0.322933C21.56 0.399739 21.0439 0.99903 21.067 1.69651C21.1448 3.922 19.8263 5.97894 17.7805 6.81695C15.8187 7.61843 13.2668 7.03409 11.8393 5.46372C11.3675 4.94643 10.5784 4.88291 10.0281 5.31198C8.59 6.44061 7.28202 7.73281 6.14572 9.1506C5.70294 9.70173 5.76833 10.5005 6.28874 10.974C7.95958 12.4871 8.49825 14.893 7.63076 16.9626C6.80251 18.9356 4.75387 20.2067 2.40881 20.2067C1.64781 20.1822 1.10623 20.6935 1.02216 21.3855C0.811253 23.188 0.80897 25.0255 1.01199 26.8427C1.08775 27.5202 1.89795 28.0234 2.58588 28.0234C4.67624 27.9703 6.6819 29.2635 7.52448 31.3117C8.36291 33.3575 7.82319 35.7418 6.18204 37.2469C5.66869 37.7188 5.6031 38.507 6.03653 39.0548C7.15104 40.4753 8.43141 41.7675 9.83259 42.8961C10.3827 43.3391 11.1827 43.277 11.6595 42.7514C13.0956 41.1634 15.6648 40.5757 17.6425 41.4059C19.7142 42.2727 21.0174 44.3664 20.8901 46.6145C20.8484 47.3209 21.3661 47.9366 22.0675 48.0168C22.985 48.1241 23.9073 48.1772 24.8325 48.1772C25.7106 48.1772 26.5889 48.1293 27.4672 48.0315C28.163 47.9547 28.6782 47.3548 28.6548 46.6571C28.5744 44.4326 29.8959 42.3755 31.9391 41.5391C33.9141 40.7325 36.4545 41.3228 37.8828 42.8909C38.3572 43.4072 39.1414 43.4699 39.694 43.0424C41.1297 41.9167 42.4351 40.6251 43.5764 39.2036C44.0196 38.6535 43.9567 37.8537 43.4334 37.3794C41.763 35.8673 41.2214 33.4604 42.0889 31.3929C42.9043 29.4464 44.8767 28.1395 46.9982 28.1395L47.2951 28.1473C47.9838 28.2032 48.6167 27.6728 48.7 26.9701C48.9119 25.166 48.9142 23.3306 48.7104 21.5128ZM24.8614 38.0135C17.2196 38.0135 11.0252 31.8191 11.0252 24.1775C11.0252 16.536 17.2198 10.3415 24.8614 10.3415C32.5029 10.3415 38.6976 16.536 38.6976 24.1775C38.6976 26.7713 37.9825 29.1973 36.7405 31.2719L30.682 25.2132C31.1206 24.179 31.3523 23.0578 31.3521 21.9008C31.3521 19.635 30.4696 17.505 28.8673 15.9031C27.2654 14.3011 25.1354 13.4189 22.87 13.4189C22.114 13.4189 21.3615 13.5194 20.6335 13.7176C20.3147 13.8046 20.054 14.0674 19.9691 14.3869C19.8823 14.7136 19.9801 15.0484 20.2354 15.304C20.2354 15.304 23.2265 18.3181 24.2272 19.3186C24.332 19.4235 24.3318 19.6736 24.3171 19.7637L24.3078 19.8295C24.2069 20.9297 24.0124 22.2503 23.8519 22.7579C23.8303 22.7792 23.81 22.7973 23.788 22.8193C23.7649 22.8424 23.7438 22.8646 23.7215 22.8874C23.2074 23.0524 21.8664 23.2492 20.7488 23.3493L20.749 23.3432L20.6987 23.3559C20.6898 23.3569 20.6732 23.3582 20.6512 23.3582C20.5304 23.3582 20.3527 23.3244 20.1912 23.1631C19.1495 22.1214 16.2758 19.2682 16.2758 19.2682C16.0179 19.0112 15.7535 18.9572 15.5772 18.9572C15.1664 18.9572 14.7986 19.2541 14.6828 19.6798C13.8917 22.6074 14.7303 25.7564 16.8719 27.8982C18.4743 29.5004 20.6045 30.3826 22.8702 30.3826C24.0273 30.3826 25.1485 30.1511 26.1824 29.7125L32.3068 35.8368C30.1566 37.2127 27.6033 38.0135 24.8614 38.0135Z" fill="#FF9F1C"/>
</svg>
