<svg width="49" height="49" viewBox="0 0 49 49" fill="none" xmlns="http://www.w3.org/2000/svg">
<path d="M5.63895 12.979C5.06051 12.979 4.49238 12.9162 3.94113 12.7943C3.09457 14.5503 2.50582 16.4281 2.20676 18.35C1.84395 20.6684 3.64582 22.7693 5.99988 22.7693C7.90301 22.7693 9.49582 21.4128 9.78832 19.5425C10.1924 16.9634 11.3839 14.6206 13.2364 12.7671C15.0889 10.9146 17.4327 9.72309 20.0118 9.31903C21.8821 9.02653 23.2386 7.43371 23.2386 5.53059C23.2386 3.17934 21.1396 1.37465 18.8183 1.73746C16.8964 2.03653 15.0177 2.62621 13.2618 3.47184C13.8186 5.9909 13.1202 8.7359 11.1646 10.6925C9.68988 12.1672 7.7277 12.979 5.63895 12.979Z" fill="#FF9F1C"/>
<path d="M9.17598 8.70349C11.1226 6.75537 11.1226 3.58549 9.17598 1.63812C7.22785 -0.30926 4.05798 -0.30926 2.1106 1.63737C0.168945 3.57715 0.148226 6.74196 2.10985 8.70349C4.08301 10.6751 7.24491 10.6346 9.17598 8.70349Z" fill="#FF9F1C"/>
<path d="M29.2816 9.31903C31.8606 9.72309 34.2044 10.9146 36.0569 12.7671C37.9094 14.6206 39.1009 16.9634 39.505 19.5425C39.7975 21.4128 41.3903 22.7693 43.2934 22.7693C45.6475 22.7693 47.4494 20.6684 47.0866 18.35C46.7875 16.4281 46.1987 14.5503 45.3522 12.7943C44.8009 12.9162 44.2328 12.979 43.6544 12.979C41.5656 12.979 39.6034 12.1672 38.1287 10.6925C36.1731 8.7359 35.4747 5.9909 36.0316 3.47184C34.2756 2.62621 32.3969 2.03653 30.475 1.73746C28.1538 1.37465 26.0547 3.17934 26.0547 5.53059C26.0547 7.43371 27.4113 9.02653 29.2816 9.31903Z" fill="#FF9F1C"/>
<path d="M47.1833 8.70349C49.145 6.74187 49.1242 3.57715 47.1826 1.63737C45.2352 -0.30926 42.0653 -0.30926 40.1172 1.63812C38.1706 3.58549 38.1706 6.75537 40.1172 8.70349C42.0483 10.6346 45.2102 10.6751 47.1833 8.70349Z" fill="#FF9F1C"/>
<path d="M20.0118 39.036C17.4327 38.6319 15.0889 37.4404 13.2364 35.5879C11.3839 33.7344 10.1924 31.3916 9.78832 28.8126C9.49582 26.9423 7.90301 25.5857 5.99988 25.5857C3.64582 25.5857 1.84395 27.6866 2.20676 30.0051C2.50582 31.9269 3.09457 33.8048 3.94113 35.5607C4.49238 35.4388 5.06051 35.376 5.63895 35.376C7.7277 35.376 9.68988 36.1879 11.1646 37.6626C13.1202 39.6191 13.8186 42.3641 13.2618 44.8832C15.0177 45.7288 16.8964 46.3185 18.8183 46.6176C21.1396 46.9804 23.2386 45.1757 23.2386 42.8244C23.2386 40.9213 21.8821 39.3285 20.0118 39.036Z" fill="#FF9F1C"/>
<path d="M2.10985 39.6515C0.148226 41.6131 0.168945 44.7779 2.1106 46.7176C4.05798 48.6643 7.22785 48.6643 9.17598 46.7169C11.1226 44.7695 11.1226 41.5996 9.17598 39.6515C7.24491 37.7204 4.08301 37.6799 2.10985 39.6515Z" fill="#FF9F1C"/>
<path d="M43.6544 35.376C44.2328 35.376 44.8009 35.4388 45.3522 35.5607C46.1987 33.8048 46.7875 31.9269 47.0866 30.0051C47.4494 27.6866 45.6475 25.5857 43.2934 25.5857C41.3903 25.5857 39.7975 26.9423 39.505 28.8126C39.1009 31.3916 37.9094 33.7344 36.0569 35.5879C34.2044 37.4404 31.8606 38.6319 29.2816 39.036C27.4113 39.3285 26.0547 40.9213 26.0547 42.8244C26.0547 45.1757 28.1538 46.9804 30.475 46.6176C32.3969 46.3185 34.2756 45.7288 36.0316 44.8832C35.4747 42.3641 36.1731 39.6191 38.1287 37.6626C39.6034 36.1879 41.5656 35.376 43.6544 35.376Z" fill="#FF9F1C"/>
<path d="M40.1172 39.6515C38.1706 41.5996 38.1706 44.7695 40.1172 46.7169C42.0653 48.6643 45.2352 48.6643 47.1826 46.7176C49.1242 44.7779 49.145 41.613 47.1833 39.6515C45.2102 37.6799 42.0483 37.7204 40.1172 39.6515Z" fill="#FF9F1C"/>
<path d="M32.952 17.9449C30.6645 15.6574 26.9511 15.6433 24.6467 17.9046C22.3405 15.6412 18.6376 15.6487 16.3414 17.9449C14.0398 20.2455 14.0398 23.9899 16.3414 26.2905L23.652 33.6021C24.2002 34.1502 25.092 34.1515 25.6414 33.6021L32.952 26.2905C35.2536 23.9899 35.2536 20.2455 32.952 17.9449Z" fill="#FF9F1C"/>
</svg>
