<svg width="49" height="49" viewBox="0 0 49 49" fill="none" xmlns="http://www.w3.org/2000/svg">
<path d="M35.3741 0.81665H9.8001C9.3151 0.81665 8.92188 1.20988 8.92188 1.69488V43.6478C8.92407 44.1328 9.31905 44.5242 9.80416 44.522C10.0004 44.5211 10.1907 44.4545 10.3446 44.3329L12.1713 42.8926V4.82137C12.1713 4.45756 12.4662 4.1627 12.83 4.1627H36.2523V1.69488C36.2523 1.20988 35.8592 0.81665 35.3741 0.81665Z" fill="#FF9F1C"/>
<path d="M39.6967 5.49629C39.6874 5.49651 39.678 5.49695 39.6687 5.49761H13.48V44.245C13.4781 44.3296 13.4602 44.4131 13.4273 44.491V48.1532C13.4246 48.517 13.7173 48.814 14.081 48.8167C14.2328 48.8178 14.3804 48.7664 14.4987 48.6713L27.0047 38.7649L39.2999 48.6625C39.5833 48.8905 39.9979 48.8455 40.2259 48.562C40.3191 48.4461 40.3704 48.3019 40.3713 48.1532V6.13872C40.3624 5.77502 40.0604 5.4874 39.6967 5.49629ZM26.8817 19.6898C24.7089 19.714 22.9278 17.9723 22.9036 15.7994C22.8793 13.6266 24.621 11.8456 26.7939 11.8213C28.9667 11.797 30.7478 13.5388 30.772 15.7116C30.7722 15.7262 30.7723 15.7407 30.7723 15.7553C30.7724 17.9113 29.0375 19.6657 26.8817 19.6898Z" fill="#FF9F1C"/>
</svg>
