<svg width="25" height="25" fill="none" xmlns="http://www.w3.org/2000/svg"><g clip-path="url(#clip0_86_61)" fill="#FF9F1C"><path d="M13.943 14.482c-.831-4.277-4.75-6.221-8.748-5.464.459-2.4 2.705-4.362 4.165-6.186.207-.258.314-.713 0-.957-.77-.598-1.488-.784-2.15-.69-.045-.125-.167-.219-.325-.169-2.348.74-3.87 3.248-4.887 5.327C.656 9.088-.018 12.264.14 15.313c.249 4.808 4.54 9.392 9.652 8.057 3.731-.974 4.79-5.593 4.15-8.888zm-9.564 3.846l.002-.004c.023-.09.043-.18.065-.272.069.09.132.189.187.297a2.395 2.395 0 01-.255.02c0-.014.002-.027.001-.04zM3.3 7.047a.648.648 0 00.194.05c-.2.4-.383.807-.55 1.223a.726.726 0 00-.202-.03c.169-.42.358-.834.557-1.243zM2.784 19.25a7.3 7.3 0 00.513.478.651.651 0 00-.069.111 5.31 5.31 0 01-.444-.59zm4.61-.017a2.774 2.774 0 01-.459-.89.19.19 0 00-.023-.071 2.576 2.576 0 01-.069-.345c.338.46.61.97.861 1.487a1.831 1.831 0 01-.31-.18z"/><path d="M14.722 8.245c.452-1.826 1.685-3.086 2.58-4.732.146-.268.089-.685-.216-.826-.558-.26-1.059-.547-1.616-.76-.169-.36-.678-.596-1.068-.244-.69.621-1.442 1.418-2.044 2.308-.798.979-1.37 2.166-1.56 3.309a.719.719 0 00.053.397l-.086.15a.544.544 0 00.193.737c3.036 1.73 4.292 4.55 4.203 7.519a2.985 2.985 0 00-.135 1.371c-.245 1.495-.808 2.991-1.64 4.373-.186.31-.116.601.066.798.048.156.173.287.399.338 4.84 1.094 9.709-1.223 10.234-6.503.489-4.914-4.63-9.055-9.363-8.235zM16.563 21.9l.049-.05a2.8 2.8 0 001.196-.36l.01.05c.011.047.035.083.055.124a9.353 9.353 0 01-1.31.236zm3.433-9.238c-.046.084-.086.168-.127.253-.003-.024-.003-.048-.007-.072.006-.175.037-.355.084-.538l.016.01c.025.1.044.204.06.31-.008.012-.018.023-.026.037zm2.312 5.299c.002-.116 0-.232-.004-.35.076-.128.146-.26.205-.397-.048.261-.12.508-.2.747z"/></g><defs><clipPath id="clip0_86_61"><path fill="#fff" transform="translate(.117 .304)" d="M0 0h24v24H0z"/></clipPath></defs></svg>