<svg width="25" height="25" fill="none" xmlns="http://www.w3.org/2000/svg"><path d="M16.615 16.77l-.651.977c-.13.195-.302.361-.529.42-.742.197-2.712.285-5.711-2.714-3-2.999-2.91-4.969-2.715-5.711.06-.227.227-.398.422-.528l.976-.652a1.582 1.582 0 00.44-2.194L7 3.6a1.582 1.582 0 00-1.94-.577l-.832.357a2.908 2.908 0 00-1.455 1.372c-.257.514-.456 1.055-.483 1.63-.085 1.808.311 6.264 5.275 11.228 4.964 4.964 9.42 5.36 11.229 5.276.574-.027 1.115-.227 1.63-.483a2.908 2.908 0 001.372-1.456l.356-.832c.3-.701.058-1.517-.577-1.94L18.81 16.33a1.582 1.582 0 00-2.194.439z" fill="#FF492F"/></svg>