<svg xmlns="http://www.w3.org/2000/svg" viewBox="0 0 210.414 210.414"><path d="M105.207 0C47.196 0 0 47.196 0 105.207c0 58.011 47.196 105.207 105.207 105.207 58.011 0 105.207-47.196 105.207-105.207C210.414 47.196 163.218 0 105.207 0zm0 202.621c-53.715 0-97.414-43.699-97.414-97.414S51.492 7.793 105.207 7.793s97.414 43.699 97.414 97.414-43.699 97.414-97.414 97.414z" fill="#fff"/><path d="M155.862 101.31h-46.759V54.552a3.897 3.897 0 00-7.794 0v46.759H54.552a3.897 3.897 0 000 7.794h46.759v46.759a3.897 3.897 0 007.794 0v-46.759h46.759a3.897 3.897 0 10-.002-7.795z" fill="#fff"/></svg>