<svg width="49" height="49" fill="none" xmlns="http://www.w3.org/2000/svg"><path d="M48.844 10.024c0 7.292-3.179 12.59-3.312 12.811a1.42 1.42 0 01-1.954.476 1.425 1.425 0 01-.481-1.956c.03-.048 2.899-4.87 2.899-11.331 0-3.685-2.396-6.359-5.698-6.359a5.703 5.703 0 00-5.697 5.7c0 1.338.648 4.74.897 5.938a1.425 1.425 0 01-2.79.583c-.097-.47-.96-4.646-.96-6.522 0-4.713 3.835-8.547 8.55-8.547 4.871 0 8.546 3.957 8.546 9.207zm-8.304 2.241c.566 4.734 1.387 13.957.444 14.897l-20.699 20.7a3.26 3.26 0 01-4.612-.002L1.833 34.022a3.262 3.262 0 010-4.613l20.7-20.698c.328-.329 3.909-.344 7.934-.134-.022.266-.08.516-.08.787 0 1.033.229 2.634.469 4.041a3.915 3.915 0 107.16 2.19 3.902 3.902 0 00-1.682-3.211c-.208-1.239-.375-2.435-.375-3.02 0-.126.026-.243.037-.367.496.052.984.106 1.446.163 2.736.336 2.764.33 3.098 3.105zM29.507 27.756c-.32-.893-.856-1.964-2.016-3.198l1.57-1.572-1.749-1.748-1.695 1.698c-2.27-1.555-4.61-1.428-6.197.16-1.73 1.73-1.322 3.927-.052 6.48.873 1.768 1.033 2.786.355 3.463-.697.697-1.82.394-2.84-.623-1.158-1.16-1.838-2.591-2.176-3.752l-2.626 1.557c.305 1.05 1.126 2.55 2.284 3.782l-1.712 1.714 1.748 1.75 1.84-1.839c2.427 1.712 4.875 1.482 6.462-.106 1.625-1.628 1.768-3.448.375-6.34-.965-2.072-1.197-3.09-.625-3.66.501-.501 1.392-.644 2.553.517 1.287 1.287 1.714 2.536 1.946 3.197l2.555-1.48z" fill="#FF9F1C"/></svg>