<svg width="49" height="49" fill="none" xmlns="http://www.w3.org/2000/svg"><path d="M5.639 12.979a7.856 7.856 0 01-1.698-.185 19.845 19.845 0 00-1.734 5.556C1.844 20.668 3.646 22.77 6 22.77a3.807 3.807 0 003.788-3.227 12.196 12.196 0 013.448-6.776 12.193 12.193 0 016.776-3.448 3.807 3.807 0 003.227-3.788c0-2.352-2.1-4.156-4.42-3.794-1.923.3-3.801.89-5.557 1.735a7.814 7.814 0 01-2.097 7.22 7.762 7.762 0 01-5.526 2.287z" fill="#FF9F1C"/><path d="M9.176 8.703a5.004 5.004 0 000-7.065 4.996 4.996 0 100 7.065zm20.106.616a12.193 12.193 0 016.775 3.448 12.196 12.196 0 013.448 6.776 3.807 3.807 0 003.788 3.226c2.355 0 4.156-2.1 3.794-4.419-.3-1.922-.888-3.8-1.735-5.556a7.856 7.856 0 01-1.698.185 7.762 7.762 0 01-5.525-2.286 7.814 7.814 0 01-2.097-7.221 19.882 19.882 0 00-5.557-1.735c-2.321-.362-4.42 1.442-4.42 3.794a3.807 3.807 0 003.227 3.788z" fill="#FF9F1C"/><path d="M47.183 8.703a4.996 4.996 0 10-7.064-7.065 4.996 4.996 0 007.064 7.065zM20.012 39.036a12.193 12.193 0 01-6.776-3.448 12.196 12.196 0 01-3.448-6.775A3.807 3.807 0 006 25.586c-2.354 0-4.156 2.1-3.793 4.42.299 1.92.888 3.799 1.734 5.555a7.856 7.856 0 011.698-.185c2.089 0 4.05.812 5.526 2.287a7.814 7.814 0 012.097 7.22 19.882 19.882 0 005.556 1.735c2.322.362 4.42-1.442 4.42-3.794a3.807 3.807 0 00-3.226-3.788z" fill="#FF9F1C"/><path d="M2.11 39.651a4.996 4.996 0 107.065 7.066A4.996 4.996 0 002.11 39.65zm41.544-4.275c.579 0 1.147.063 1.698.185a19.848 19.848 0 001.735-5.556c.362-2.318-1.44-4.42-3.794-4.42a3.807 3.807 0 00-3.788 3.228 12.196 12.196 0 01-3.448 6.775 12.193 12.193 0 01-6.775 3.448 3.807 3.807 0 00-3.227 3.788c0 2.352 2.099 4.156 4.42 3.794 1.922-.3 3.8-.89 5.557-1.735a7.814 7.814 0 012.097-7.22 7.762 7.762 0 015.525-2.287z" fill="#FF9F1C"/><path d="M40.117 39.651a5.004 5.004 0 000 7.066 4.996 4.996 0 100-7.065zm-7.165-21.706a5.908 5.908 0 00-8.305-.04 5.898 5.898 0 00-8.306.04 5.907 5.907 0 000 8.346l7.311 7.311c.548.548 1.44.55 1.99 0l7.31-7.311a5.907 5.907 0 000-8.346z" fill="#FF9F1C"/></svg>