<svg width="49" height="49" fill="none" xmlns="http://www.w3.org/2000/svg"><path d="M35.374.817H9.8a.878.878 0 00-.878.878v41.953a.878.878 0 001.423.685l1.826-1.44V4.82c0-.363.295-.658.659-.658h23.422V1.695a.878.878 0 00-.878-.878z" fill="#FF9F1C"/><path d="M39.697 5.496c-.01 0-.019 0-.028.002H13.48v38.747a.671.671 0 01-.053.246v3.662a.659.659 0 001.072.518l12.506-9.906L39.3 48.663a.659.659 0 001.071-.51V6.14a.659.659 0 00-.674-.643zM26.882 19.69a3.934 3.934 0 11-.088-7.869 3.934 3.934 0 01.088 7.869z" fill="#FF9F1C"/></svg>